<svg version="1.1" xmlns="http://www.w3.org/2000/svg" viewBox="90 298 1020 218">
<g>
	<rect x="93" y="295" width="1015" height="220" fill="white"/>
	<rect x="93" y="300" width="1013" height="13"/>
	<rect x="93" y="436" width="1013" height="31"/>
	<g>
		<path d="M257.4,327.06c15.04,2.77,22.34,10.51,24.38,26.13c0.58,3.94,0.88,11.83,0.88,23.65c0,23.51-2.48,32.99-10.8,39.86
			c-5.84,4.96-14.02,7.3-28.18,7.88c-5.26,0.29-18.25,0.44-27.74,0.44c-23.21,0-35.04-0.44-40.88-1.61
			c-10.8-1.9-17.08-5.99-20.73-13.14c-3.8-7.15-4.67-14.31-4.67-35.62c0-16.35,0.29-20.44,2.04-27.01
			c2.77-10.37,8.47-15.91,19.42-19.13c8.18-2.34,17.08-2.92,42.78-2.92C241.93,325.6,250.54,325.89,257.4,327.06z M184.7,352.9
			c-3.94,3.07-5.11,7.88-5.11,21.9c0,14.31,1.17,19.56,4.82,22.63c3.94,3.21,8.76,3.8,31.1,3.8c25.55,0,30.81-0.88,34.16-5.55
			c2.77-3.5,3.5-8.47,3.5-21.46c0-24.53-0.44-24.82-36.94-24.82C194.48,349.4,188.49,350.13,184.7,352.9z"/>
		<path d="M323.1,392.9c0.29,6.72,1.02,8.32,4.53,9.64c2.19,0.88,10.51,1.46,19.86,1.46c34.31,0,38.4-1.02,38.4-9.05
			c0-3.94-1.9-6.86-4.96-7.88c-3.21-1.02-3.21-1.02-18.54-1.17h-26.86c-17.96,0-25.4-1.02-31.68-4.23
			c-7.01-3.65-10.22-11.39-10.22-24.67c0-17.52,4.96-24.97,18.98-28.32c7.88-2.04,19.27-2.77,40.59-2.77
			c34.16,0,42.05,0.88,49.05,5.4c6.72,4.53,8.91,10.51,8.91,25.11h-28.91c0-8.47-2.92-9.64-22.05-9.64
			c-9.49,0-22.19,0.29-26.86,0.58c-7.88,0.58-10.51,2.63-10.51,8.18c0,4.09,2.04,6.72,6.28,7.74c1.75,0.44,2.34,0.58,11.97,0.73
			h27.59c2.63,0,15.77,0.44,20.73,0.73c18.54,0.88,25.84,9.05,25.84,28.62c0,17.96-5.26,25.84-19.56,28.91
			c-7.3,1.61-21.75,2.48-42.92,2.48c-33.73,0-41.17-0.73-49.78-5.11c-5.99-2.92-9.05-10.37-9.05-21.9c0-0.88,0-2.77,0.15-4.82H323.1
			z"/>
		<path d="M427.93,326.62h87.89c11.24,0,17.37,1.02,22.48,3.5c7.88,4.09,11.1,10.66,11.1,23.07c0,12.7-4.38,19.27-13.58,21.02
			c13.14,2.48,17.52,8.18,17.52,22.34c0,12.26-3.5,20-11.24,24.09c-4.53,2.34-10.95,3.36-22.19,3.36h-91.98V326.62z M506.62,365.46
			c5.69,0,7.74-0.29,9.64-1.17c2.34-1.31,3.8-3.94,3.8-7.3c0-3.94-1.9-6.86-5.11-8.03c-1.9-0.58-3.36-0.73-9.05-0.73h-49.05v17.23
			H506.62z M509.84,402.39c5.99,0,7.15-0.15,9.05-0.73c2.92-1.02,4.67-3.94,4.67-8.03c0-4.23-1.75-7.15-4.96-8.32
			c-1.75-0.58-2.92-0.73-9.49-0.73h-52.27v17.81H509.84z"/>
		<path d="M671.9,327.06c15.04,2.77,22.34,10.51,24.38,26.13c0.58,3.94,0.88,11.83,0.88,23.65c0,23.51-2.48,32.99-10.8,39.86
			c-5.84,4.96-14.02,7.3-28.18,7.88c-5.26,0.29-18.25,0.44-27.74,0.44c-23.21,0-35.04-0.44-40.88-1.61
			c-10.8-1.9-17.08-5.99-20.73-13.14c-3.8-7.15-4.67-14.31-4.67-35.62c0-16.35,0.29-20.44,2.04-27.01
			c2.77-10.37,8.47-15.91,19.42-19.13c8.18-2.34,17.08-2.92,42.78-2.92C656.42,325.6,665.03,325.89,671.9,327.06z M599.19,352.9
			c-3.94,3.07-5.11,7.88-5.11,21.9c0,14.31,1.17,19.56,4.82,22.63c3.94,3.21,8.76,3.8,31.1,3.8c25.55,0,30.81-0.88,34.16-5.55
			c2.77-3.5,3.5-8.47,3.5-21.46c0-24.53-0.44-24.82-36.94-24.82C608.97,349.4,602.99,350.13,599.19,352.9z"/>
		<path d="M710.29,326.62h83.95c17.23,0,24.82,1.46,30.37,6.13c5.69,4.53,8.32,12.85,8.32,25.99c0,18.1-4.38,25.26-16.79,28.03
			c12.12,2.04,15.77,7.15,15.48,21.9V424h-30.08v-12.12c-0.15-10.51-3.07-12.7-16.35-12.41h-45.4V424h-29.49V326.62z M786.07,375.68
			c14.31,0,17.08-1.75,17.08-11.39c0-6.28-0.58-8.91-2.48-10.95c-2.19-2.34-4.67-2.77-13.58-2.77h-47.3v25.11H786.07z"/>
		<path d="M846.66,326.62h47.16l58.98,74.02l-0.73-74.02h28.03V424h-47.59l-58.11-73.29l0.73,73.29h-28.47V326.62z"/>
		<path d="M1104.12,326.62v22.05h-79.78v16.79h79.78v19.27h-79.78v17.23h79.78V424H995.14v-97.38H1104.12z"/>
	</g>
	<g fill="white">
		<rect x="95" y="336.71" width="194" height="2"/>
		<rect x="95" y="349.43" width="194" height="2"/>
		<rect x="95" y="362.14" width="194" height="2"/>
		<rect x="95" y="374.86" width="194" height="2"/>
		<rect x="95" y="387.57" width="194" height="2"/>
		<rect x="95" y="400.29" width="194" height="2"/>
		<rect x="95" y="413.00" width="194" height="2"/>
	</g>
	<rect x="95" y="326.00" width="147" height="2"/>
	<rect x="95" y="338.71" width="167" height="2"/>
	<rect x="95" y="351.43" width="167" height="2"/>
	<rect x="95" y="364.14" width="167" height="2"/>
	<rect x="95" y="376.86" width="167" height="2"/>
	<rect x="95" y="389.57" width="167" height="2"/>
	<rect x="95" y="402.29" width="167" height="2"/>
	<rect x="95" y="415.00" width="167" height="2"/>
	<g>
		<path d="M137.48,498.58v0.54c0,4.65-0.49,6.96-1.86,8.43c-2.25,2.5-5.34,3.09-15.97,3.09c-13.03,0-15.43-0.25-18.32-1.81
			c-1.86-1.03-3.09-2.79-3.72-5.29c-0.44-1.67-0.69-5.49-0.69-10.09c0-9.11,0.93-12.2,4.36-14.11c2.79-1.57,6.17-1.96,16.51-1.96
			c11.32,0,15.09,0.64,17.15,2.94c1.42,1.52,2.16,4.36,2.16,8.33h-7.2c0-4.75-0.98-5.19-11.76-5.19c-7.64,0-9.85,0.2-11.42,1.03
			c-1.86,0.98-2.25,2.79-2.25,9.85c0,9.5,0.78,10.24,10.98,10.24l10-0.2c3.53-0.34,4.75-1.67,4.75-5.05v-0.73H137.48z"/>
		<path d="M189.96,480.55c1.37,1.52,2.11,3.62,2.4,6.91c0.15,1.52,0.2,3.28,0.2,6.91c0,8.18-0.78,11.32-3.28,13.52
			c-1.81,1.57-4.26,2.35-8.38,2.6c-1.57,0.1-7.5,0.2-12.05,0.2c-10,0-12.69-0.29-15.48-1.81c-2.16-1.18-3.58-3.43-4.02-6.66
			c-0.29-2.16-0.39-3.92-0.39-9.26c0-7.64,0.73-10.68,3.09-12.74c1.76-1.57,4.07-2.3,8.28-2.65c1.67-0.15,6.57-0.25,12.54-0.25
			C184.43,477.32,187.51,477.91,189.96,480.55z M156.64,494.03c0,6.37,0.49,8.43,2.3,9.36c1.81,0.98,3.38,1.13,12.74,1.13
			c8.43,0,10.53-0.34,11.86-1.81c1.13-1.22,1.47-3.33,1.47-8.87c0-10.24-0.1-10.34-14.21-10.34
			C156.84,483.49,156.64,483.64,156.64,494.03z"/>
		<path d="M204.91,477.66h11.66l15.38,24.6l15.34-24.6h11.51v32.68h-7.4l0.29-26.9l-16.9,26.9h-5.93l-16.81-26.9l0.2,26.9h-7.35
			V477.66z"/>
		<path d="M271.99,477.66h25.53c4.21,0,5.98,0.15,7.5,0.64c4.07,1.22,5.49,3.97,5.49,10.53c0,5-0.78,7.74-2.79,9.46
			c-1.71,1.52-4.21,2.06-9.31,2.06h-18.91v10h-7.5V477.66z M296.29,494.27c5.24,0,6.61-1.03,6.61-5.05c0-4.41-1.23-5.49-6.27-5.49
			h-17.15v10.53H296.29z"/>
		<path d="M362.39,477.66v20.58c0,6.22-0.98,8.77-4.12,10.53c-2.79,1.62-5.59,1.91-17.15,1.91c-11.32,0-14.75-0.69-17.15-3.38
			c-1.67-1.91-2.16-4.16-2.16-10.19v-19.45h7.55v17.1c0,4.36,0,4.36,0.25,5.73c0.54,3.48,2.45,4.12,12.25,4.12
			c4.41,0,8.48-0.2,9.6-0.49c1.91-0.49,2.94-1.67,3.23-3.72c0.1-0.59,0.1-0.59,0.15-5.14v-17.59H362.39z"/>
		<path d="M388.12,483.79h-15.38v-6.12H411v6.12h-15.34v26.56h-7.55V483.79z"/>
		<path d="M421.49,477.66h34.74v5.73h-27.29v7.74h25.97v5.14h-25.97v8.33h27.58v5.73h-35.03V477.66z"/>
		<path d="M468.28,477.66h27.68c5.73,0,8.33,0.69,10.09,2.6c1.42,1.57,2.11,4.12,2.11,7.84c0,3.58-0.44,5.59-1.42,6.81
			c-0.98,1.22-2.16,1.81-4.12,2.16c4.12,0.34,5.05,1.62,5,6.81v6.47h-7.59v-4.9c-0.1-4.46-1.13-5.34-6.08-5.29h-18.18v10.19h-7.5
			V477.66z M493.71,494.13c5.49,0,6.86-0.98,6.86-4.9c0-4.51-1.13-5.44-6.71-5.44h-18.08v10.34H493.71z"/>
		<path d="M610.62,498.58v0.54c0,4.65-0.49,6.96-1.86,8.43c-2.25,2.5-5.34,3.09-15.97,3.09c-13.03,0-15.43-0.25-18.32-1.81
			c-1.86-1.03-3.09-2.79-3.72-5.29c-0.44-1.67-0.69-5.49-0.69-10.09c0-9.11,0.93-12.2,4.36-14.11c2.79-1.57,6.17-1.96,16.51-1.96
			c11.32,0,15.09,0.64,17.15,2.94c1.42,1.52,2.16,4.36,2.16,8.33h-7.2c0-4.75-0.98-5.19-11.76-5.19c-7.64,0-9.85,0.2-11.42,1.03
			c-1.86,0.98-2.25,2.79-2.25,9.85c0,9.5,0.78,10.24,10.98,10.24l10-0.2c3.53-0.34,4.75-1.67,4.75-5.05v-0.73H610.62z"/>
		<path d="M663.1,480.55c1.37,1.52,2.11,3.62,2.4,6.91c0.15,1.52,0.2,3.28,0.2,6.91c0,8.18-0.78,11.32-3.28,13.52
			c-1.81,1.57-4.26,2.35-8.38,2.6c-1.57,0.1-7.5,0.2-12.05,0.2c-10,0-12.69-0.29-15.48-1.81c-2.16-1.18-3.58-3.43-4.02-6.66
			c-0.29-2.16-0.39-3.92-0.39-9.26c0-7.64,0.73-10.68,3.09-12.74c1.76-1.57,4.07-2.3,8.28-2.65c1.67-0.15,6.57-0.25,12.54-0.25
			C657.56,477.32,660.65,477.91,663.1,480.55z M629.78,494.03c0,6.37,0.49,8.43,2.3,9.36c1.81,0.98,3.38,1.13,12.74,1.13
			c8.43,0,10.53-0.34,11.86-1.81c1.13-1.22,1.47-3.33,1.47-8.87c0-10.24-0.1-10.34-14.21-10.34
			C629.98,483.49,629.78,483.64,629.78,494.03z"/>
		<path d="M678.05,477.66h27.68c5.73,0,8.33,0.69,10.09,2.6c1.42,1.57,2.11,4.12,2.11,7.84c0,3.58-0.44,5.59-1.42,6.81
			c-0.98,1.22-2.16,1.81-4.12,2.16c4.12,0.34,5.05,1.62,5,6.81v6.47h-7.59v-4.9c-0.1-4.46-1.13-5.34-6.08-5.29h-18.18v10.19h-7.5
			V477.66z M703.48,494.13c5.49,0,6.86-0.98,6.86-4.9c0-4.51-1.13-5.44-6.71-5.44h-18.08v10.34H703.48z"/>
		<path d="M730.38,477.66h25.53c4.21,0,5.98,0.15,7.5,0.64c4.07,1.22,5.49,3.97,5.49,10.53c0,5-0.78,7.74-2.79,9.46
			c-1.71,1.52-4.21,2.06-9.31,2.06h-18.91v10h-7.5V477.66z M754.68,494.27c5.24,0,6.61-1.03,6.61-5.05c0-4.41-1.23-5.49-6.27-5.49
			h-17.15v10.53H754.68z"/>
		<path d="M820.93,480.55c1.37,1.52,2.11,3.62,2.4,6.91c0.15,1.52,0.2,3.28,0.2,6.91c0,8.18-0.78,11.32-3.28,13.52
			c-1.81,1.57-4.26,2.35-8.38,2.6c-1.57,0.1-7.5,0.2-12.05,0.2c-10,0-12.69-0.29-15.48-1.81c-2.16-1.18-3.58-3.43-4.02-6.66
			c-0.29-2.16-0.39-3.92-0.39-9.26c0-7.64,0.73-10.68,3.09-12.74c1.76-1.57,4.07-2.3,8.28-2.65c1.67-0.15,6.57-0.25,12.54-0.25
			C815.39,477.32,818.48,477.91,820.93,480.55z M787.61,494.03c0,6.37,0.49,8.43,2.3,9.36c1.81,0.98,3.38,1.13,12.74,1.13
			c8.43,0,10.53-0.34,11.86-1.81c1.13-1.22,1.47-3.33,1.47-8.87c0-10.24-0.1-10.34-14.21-10.34
			C787.81,483.49,787.61,483.64,787.61,494.03z"/>
		<path d="M835.88,477.66h27.68c5.73,0,8.33,0.69,10.09,2.6c1.42,1.57,2.11,4.12,2.11,7.84c0,3.58-0.44,5.59-1.42,6.81
			c-0.98,1.22-2.16,1.81-4.12,2.16c4.12,0.34,5.05,1.62,5,6.81v6.47h-7.59v-4.9c-0.1-4.46-1.13-5.34-6.08-5.29h-18.18v10.19h-7.5
			V477.66z M861.31,494.13c5.49,0,6.86-0.98,6.86-4.9c0-4.51-1.13-5.44-6.71-5.44h-18.08v10.34H861.31z"/>
		<path d="M897.42,503.88l-3.63,6.47h-8.48l18.72-32.68h10.24l18.42,32.68h-8.23l-3.72-6.47H897.42z M909.08,482.96l-8.77,15.63
			h17.64L909.08,482.96z"/>
		<path d="M948.77,483.79h-15.38v-6.12h38.27v6.12h-15.33v26.56h-7.55V483.79z"/>
		<path d="M982.14,477.66h7.55v32.68h-7.55V477.66z"/>
		<path d="M1043.09,480.55c1.37,1.52,2.11,3.62,2.4,6.91c0.15,1.52,0.2,3.28,0.2,6.91c0,8.18-0.78,11.32-3.28,13.52
			c-1.81,1.57-4.26,2.35-8.38,2.6c-1.57,0.1-7.5,0.2-12.05,0.2c-10,0-12.69-0.29-15.48-1.81c-2.16-1.18-3.58-3.43-4.02-6.66
			c-0.29-2.16-0.39-3.92-0.39-9.26c0-7.64,0.73-10.68,3.09-12.74c1.76-1.57,4.07-2.3,8.28-2.65c1.67-0.15,6.57-0.25,12.54-0.25
			C1037.56,477.32,1040.64,477.91,1043.09,480.55z M1009.78,494.03c0,6.37,0.49,8.43,2.3,9.36c1.81,0.98,3.38,1.13,12.74,1.13
			c8.43,0,10.53-0.34,11.86-1.81c1.13-1.22,1.47-3.33,1.47-8.87c0-10.24-0.1-10.34-14.21-10.34
			C1009.97,483.49,1009.78,483.64,1009.78,494.03z"/>
		<path d="M1058.04,477.66h11.71l24.55,27.19l-0.15-27.19h7.2v32.68h-11.76l-24.4-27.05l0.15,27.05h-7.3V477.66z"/>
	</g>
</g>
</svg>
