<?xml version="1.0" encoding="UTF-8" standalone="no"?>
<!-- Created with Inkscape (http://www.inkscape.org/) -->

<svg
   xmlns:dc="http://purl.org/dc/elements/1.1/"
   xmlns:cc="http://creativecommons.org/ns#"
   xmlns:rdf="http://www.w3.org/1999/02/22-rdf-syntax-ns#"
   xmlns:svg="http://www.w3.org/2000/svg"
   xmlns="http://www.w3.org/2000/svg"
   xmlns:inkscape="http://www.inkscape.org/namespaces/inkscape"
   version="1.2"
   width="191.52974"
   height="154.40714"
   id="svg2">
  <defs
     id="defs4">
    <inkscape:path-effect
       effect="spiro"
       id="path-effect3812" />
    <inkscape:path-effect
       effect="spiro"
       id="path-effect3808" />
    <inkscape:path-effect
       effect="spiro"
       id="path-effect3804" />
    <inkscape:path-effect
       effect="spiro"
       id="path-effect3022" />
  </defs>
  <metadata
     id="metadata7">
    <rdf:RDF>
      <cc:Work
         rdf:about="">
        <dc:format>image/svg+xml</dc:format>
        <dc:type
           rdf:resource="http://purl.org/dc/dcmitype/StillImage" />
        <dc:title></dc:title>
      </cc:Work>
    </rdf:RDF>
  </metadata>
  <g
     transform="translate(-1.0000001,-0.76359682)"
     id="layer1">
    <path
       d="m 421.43564,613.42566 a 8.8388348,9.7227182 0 1 1 -17.67767,0 8.8388348,9.7227182 0 1 1 17.67767,0 z"
       transform="matrix(1,0,0,0.92931831,-247.64645,-560.2686)"
       id="path3024"
       style="fill:#904291;fill-opacity:1;fill-rule:evenodd;stroke:none" />
    <path
       d="M 50.93935,36.56408 C 31.97883,21.61966 8.8872,28.36199 4.0000001,45.86218 c -3.74353,15.8794 2.77271,25.77919 18.9999999,30.5 14.4633,2.47864 28.70467,12.86082 16.5,26 -13.89782,9.62065 -20.95016,-0.64578 -28,-9.5 l -10.4999999,4.5 C 3.4945901,113.95066 22.11278,122.02188 37.00976,118.11922 57.16344,112.08713 58.69664,96.6407 57.47048,85.47932 56.3347,75.14065 46.50878,69.00409 24,62.29968 14.05446,56.6445 15.67355,41.91207 25.75,41.86218 c 10.63049,-1.72037 14.24956,3.70276 21.60691,7.81556 5.96984,3.33718 10.51512,-7.19675 3.58244,-13.11366 z"
       id="path3822"
       style="fill:#904291;fill-opacity:1;stroke:none" />
    <path
       d="m 146.5,30.86218 27,0 -0.5,59 c -0.98471,18.7932 8.89975,14.06758 11.02339,17.59881 2.14086,3.55987 0.68113,10.59126 -5.9704,10.4225 C 171.29226,117.71196 160.43194,110.48622 158,101.86218 l -0.0625,-59 -11.4375,0 z"
       id="path3824"
       style="fill:#904291;fill-opacity:1;stroke:none" />
    <path
       d="m 106.25,28.11218 c 13.67209,-25.2448298 51.50916,-15.85598 20,-2 -3.01108,1.23892 -5.85682,2.64318 -6.25,6.5 4.24353,4.23402 9.26262,7.88637 11,14 8.34598,28.37421 -2.73585,49.53903 -24,52.5 -11.8192,1.46751 -11.84237,-0.99699 -17.75,-1.5 l -4.5,14.5 c 29.56057,-0.91176 48.39946,-1.45673 51.25,16.25 2.60456,44.27395 -71.15422,27.35705 -49.25,-5 -8.58335,-0.10444 -17.7938,-2.23618 -16.25,-10 l 9,-23.25 c -21.30678,-37.24928 4.71332,-64.67257 26.75,-62 z"
       id="path3826"
       style="fill:#904291;fill-opacity:1;stroke:none" />
    <path
       d="m 87.75,60.86218 c -0.29172,16.21218 2.27406,24.69986 15.75,25.25 8.38565,0.58062 15.85585,-7.31941 14,-27.75 -0.72131,-24.26662 -29.8537,-24.08626 -29.75,2.5 z"
       id="path3828"
       style="fill:#ffffff;fill-opacity:1;stroke:none" />
    <path
       d="m 372.75,738.73718 a 13,11.125 0 1 1 -26,0 13,11.125 0 1 1 26,0 z"
       transform="matrix(1.064741,0,0,1,-273.19893,-605.25)"
       id="path3832"
       style="fill:#ffffff;fill-opacity:1;stroke:none" />
    <flowRoot
       id="flowRoot3836"
       xml:space="preserve"
       style="font-size:40px;font-style:normal;font-weight:normal;line-height:125%;letter-spacing:0px;word-spacing:0px;fill:#000000;fill-opacity:1;stroke:none;font-family:Sans"><flowRegion
         id="flowRegion3838"><rect
           width="28.5"
           height="54.25"
           x="422.5"
           y="621.36218"
           id="rect3840" /></flowRegion><flowPara
         id="flowPara3842">cddcsd</flowPara></flowRoot>    <flowRoot
       transform="matrix(0.41980982,0,0,0.41980982,-21.35189,-207.12338)"
       id="flowRoot3844"
       xml:space="preserve"
       style="font-size:40px;font-style:normal;font-weight:normal;line-height:125%;letter-spacing:0px;word-spacing:0px;fill:#904291;fill-opacity:1;stroke:none;font-family:Sans"><flowRegion
         id="flowRegion3846"><rect
           width="81.5"
           height="89"
           x="475"
           y="555.86218"
           id="rect3848"
           style="fill:#904291;fill-opacity:1" /></flowRegion><flowPara
         id="flowPara3850">®</flowPara></flowRoot>  </g>
</svg>
