<?xml version="1.0" encoding="utf-8"?>
<svg version="1.1"
	 id="svg31" xmlns:cc="http://creativecommons.org/ns#" xmlns:dc="http://purl.org/dc/elements/1.1/" xmlns:inkscape="http://www.inkscape.org/namespaces/inkscape" xmlns:rdf="http://www.w3.org/1999/02/22-rdf-syntax-ns#" xmlns:sodipodi="http://sodipodi.sourceforge.net/DTD/sodipodi-0.dtd" xmlns:svg="http://www.w3.org/2000/svg"
	 xmlns="http://www.w3.org/2000/svg" xmlns:xlink="http://www.w3.org/1999/xlink" x="0px" y="0px" viewBox="0 0 566.9 85"
	 style="enable-background:new 0 0 566.9 85;" xml:space="preserve">
<style type="text/css">
	.st0{fill="#000"}
</style>
<g id="g28">
	<path class="st0" d="M8.9,78.2V67.6h82.5v-12H8.9v-33h93.7v10.5H20.1v12h82.5v33.1H8.9z"/>
	<path class="st0" d="M109.4,78.2V50.6V23.4h11.2v27.2v27.6H109.4z"/>
	<path class="st0" d="M126.7,78.2V23.4h93.7v54.8h-11.2V33.9h-71.3v44.3L126.7,78.2z"/>
	<path class="st0" d="M226.4,78.2V23.4h93.8v10.5h-82.5v33.8h82.5v10.5L226.4,78.2z"/>
	<path class="st0" d="M327.7,78.2V42.5V6.9h11.2v35.7v35.7H327.7z"/>
	<path class="st0" d="M445.4,78.2V50.8V23.4h11.3v27.4v27.4H445.4z"/>
	<path class="st0" d="M463.5,78.2V23.4h93.7v10.5h-82.5v44.3C474.7,78.2,467.2,78.2,463.5,78.2L463.5,78.2z"/>
	<path class="st0" d="M344.9,23.4v10.5h82.5v12h-82.5v32.3h93.8V23.4H344.9z M427.4,67.6h-71.2v-6v-6h71.2v6V67.6z"/>
	<path class="st0" d="M109.4,17.4v-5.3V6.9h11.2v5.3v5.3H109.4z"/>
	<path class="st0" d="M445.4,17.4v-5.3V6.9h11.3v5.3v5.3H445.4z"/>
</g>
</svg>
